<?xml version="1.0" encoding="UTF-8"?>
<svg width="1000px" height="1000px" viewBox="0 0 1000 1000" version="1.1" xmlns="http://www.w3.org/2000/svg" xmlns:xlink="http://www.w3.org/1999/xlink">
    <title>Jumbled</title>
    <g id="Jumbled" stroke="none" stroke-width="1" fill="none" fill-rule="evenodd">
        <text font-family="EBGaramond-Regular_Medium, EB Garamond" font-size="24" font-weight="400" fill="#000000">
            <tspan x="459" y="218">Jumbled</tspan>
        </text>
        <text id="—-this" font-family="EBGaramond-Regular_Medium, EB Garamond" font-size="18" font-weight="400" fill="#000000">
            <tspan x="246" y="261">— this</tspan>
        </text>
        <text id="is" font-family="EBGaramond-Regular_Medium, EB Garamond" font-size="18" font-weight="400" fill="#000000">
            <tspan x="416" y="387">is</tspan>
        </text>
        <text id="the" font-family="EBGaramond-Regular_Medium, EB Garamond" font-size="18" font-weight="400" fill="#000000">
            <tspan x="640" y="159">the</tspan>
        </text>
        <text id="h-uman" font-family="EBGaramond-Regular_Medium, EB Garamond" font-size="18" font-weight="400" fill="#000000">
            <tspan x="733" y="310">h uman</tspan>
        </text>
        <text id="state:" font-family="EBGaramond-Regular_Medium, EB Garamond" font-size="18" font-weight="400" fill="#000000">
            <tspan x="540" y="298">state:</tspan>
        </text>
        <text id="jumbled" transform="translate(636.500000, 417.500000) rotate(12.000000) translate(-636.500000, -417.500000) " font-family="EBGaramond-Regular_Medium, EB Garamond" font-size="18" font-weight="400" fill="#000000">
            <tspan x="607" y="424">jumbled</tspan>
        </text>
        <text id="jumbled" transform="translate(620.500000, 403.500000) rotate(-11.000000) translate(-620.500000, -403.500000) " font-family="EBGaramond-Regular_Medium, EB Garamond" font-size="18" font-weight="400" fill="#000000">
            <tspan x="591" y="410">jumbled</tspan>
        </text>
        <text id="jumbled" transform="translate(615.500000, 419.500000) rotate(-28.000000) translate(-615.500000, -419.500000) " font-family="EBGaramond-Regular_Medium, EB Garamond" font-size="18" font-weight="400" fill="#000000">
            <tspan x="586" y="426">jumbled</tspan>
        </text>
        <text id="disoriented" font-family="EBGaramond-Regular_Medium, EB Garamond" font-size="18" font-weight="400" fill="#000000">
            <tspan x="226" y="321">disoriented</tspan>
        </text>
        <text id="disoriented" font-family="EBGaramond-Regular_Medium, EB Garamond" font-size="18" font-weight="400" fill="#000000">
            <tspan x="226" y="325">disoriented</tspan>
        </text>
        <text id="disoriented" font-family="EBGaramond-Regular_Medium, EB Garamond" font-size="18" font-weight="400" fill="#000000">
            <tspan x="226" y="331">disoriented</tspan>
        </text>
        <text id="disoriented" font-family="EBGaramond-Regular_Medium, EB Garamond" font-size="18" font-weight="400" fill="#000000">
            <tspan x="226" y="335">disoriented</tspan>
        </text>
        <text id="off-" transform="translate(155.451953, 431.991324) rotate(-48.000000) translate(-155.451953, -431.991324) " font-family="EBGaramond-Regular_Medium, EB Garamond" font-size="18" font-weight="400" fill="#000000">
            <tspan x="142.451953" y="438.491324">off-</tspan>
        </text>
        <text id="upside-down" transform="translate(493.500000, 36.500000) rotate(180.000000) translate(-493.500000, -36.500000) " font-family="EBGaramond-Regular_Medium, EB Garamond" font-size="18" font-weight="400" fill="#000000">
            <tspan x="447" y="43">upside-down</tspan>
        </text>
        <polyline id="Path" stroke="#000000" stroke-width="2" points="737.854706 291.5 737.854706 300.910387 743.975696 300.910387 743.975696 310.261435"></polyline>
        <line x1="737.854706" y1="295.025505" x2="743.975696" y2="295.025505" id="Path-2" stroke="#000000" stroke-width="2"></line>
        <ellipse id="Oval" stroke="#000000" fill="#000000" cx="738" cy="289.5" rx="2.5" ry="2"></ellipse>
        <text id="point" transform="translate(189.500000, 430.500000) rotate(49.000000) translate(-189.500000, -430.500000) " font-family="EBGaramond-Regular_Medium, EB Garamond" font-size="18" font-weight="400" fill="#000000">
            <tspan x="170" y="437">point</tspan>
        </text>
        <polygon id="Path-3" stroke="#000000" fill="#000000" points="538.24621 301.331066 556.5 301.331066 560.177014 306.543409 554.152073 311.119893 556.5 317.888314 549.211612 324.311949 527.268308 324.311949 527.268308 301.331066"></polygon>
        <polygon id="Path-4" stroke="#000000" fill="#000000" points="553.683544 324.311949 560.177014 318.604954 558.959819 312.821508 565.19657 307.298265 560.177014 301.331066 586.103928 301.331066 586.103928 324.311949"></polygon>
        <text id="fallen" font-family="EBGaramond-Italic_Medium-Italic, EB Garamond" font-size="18" font-style="italic" font-weight="400" fill="#000000">
            <tspan x="355" y="478">fallen</tspan>
        </text>
        <text id="d-p-av-d" font-family="EBGaramond-Regular_Medium, EB Garamond" font-size="18" font-weight="400" fill="#000000">
            <tspan x="252" y="78">d p av d</tspan>
        </text>
        <path d="M252,83 L316,83 C309.333333,85.4288469 306,88.6159468 306,92.5612998 C306,96.5066527 304.416692,98.3879815 301.250075,98.2052861 C297.96316,98.2133717 296.901528,95.6811787 298.065177,90.6087072 C299.810651,83 289.405104,86.5414672 289.405104,90.6087072 C289.405104,93.3202006 288.041526,95.3147689 285.31437,96.5924121 C281.382089,98.5378922 279.415948,97.1941881 279.415948,92.5612998 C279.415948,87.9284114 270.277299,84.7413115 252,83 Z" id="Path-5" stroke="#000000" fill="#000000"></path>
        <circle id="Oval" stroke="#000000" fill="#000000" cx="302" cy="107" r="2.5"></circle>
        <text id="e" font-family="EBGaramond-Regular_Medium, EB Garamond" font-size="18" font-weight="400" fill="#000000">
            <tspan x="260" y="75">e</tspan>
        </text>
        <text id="r" transform="translate(276.500000, 75.500000) rotate(-162.000000) translate(-276.500000, -75.500000) " font-family="EBGaramond-Regular_Medium, EB Garamond" font-size="18" font-weight="400" fill="#000000">
            <tspan x="273" y="82">r</tspan>
        </text>
        <text id="e" transform="translate(298.000000, 75.500000) rotate(89.000000) translate(-298.000000, -75.500000) " font-family="EBGaramond-Regular_Medium, EB Garamond" font-size="18" font-weight="400" fill="#000000">
            <tspan x="294" y="82">e</tspan>
        </text>
        <text id="and" font-family="EBGaramond-Regular_Medium, EB Garamond" font-size="18" font-weight="400" fill="#000000">
            <tspan x="788" y="194">and</tspan>
        </text>
        <text id="dead" font-family="EBGaramond-Regular_Medium, EB Garamond" font-size="18" font-weight="400" fill="#000000">
            <tspan x="788" y="421">dead</tspan>
        </text>
        <line x1="788" y1="410.738002" x2="843" y2="411" id="Path-6" stroke="#000000" stroke-width="2"></line>
        <path d="M795.5,396.5 C796.328427,396.5 797.078427,396.835786 797.62132,397.37868 C798.164214,397.921573 798.5,398.671573 798.5,399.5 L798.5,399.5 L798.49838,410.5 L792.5,410.5 L792.5,400 C792.5,398.716814 792.820579,397.936781 793.37868,397.37868 C793.921573,396.835786 794.671573,396.5 795.5,396.5 Z" id="Path" stroke="#000000" fill="#000000"></path>
        <path d="M818.5,396.5 C819.328427,396.5 820.078427,396.835786 820.62132,397.37868 C821.164214,397.921573 821.5,398.671573 821.5,399.5 L821.5,399.5 L821.49838,410.5 L815.5,410.5 L815.5,400 C815.5,398.716814 815.820579,397.936781 816.37868,397.37868 C816.921573,396.835786 817.671573,396.5 818.5,396.5 Z" id="Path" stroke="#000000" fill="#000000"></path>
        <polygon id="Path-7" stroke="#000000" fill="#000000" points="832.348607 411 836.814937 394.798125 835.304068 387.427482 829.891118 378.94049 823.132605 375.570377 816.898308 376.465399 810.244254 376.465399 804.193743 381.788253 809.451501 375.570377 805 372.733657 810.91041 374.53805 816.898308 374.53805 823.132605 372.733657 829.30456 373.793859 835.304068 378.114939 835.304068 372.733657 829.891118 367.856832 836.180512 371.122333 829.891118 358.063943 822 355.95844 831.470635 356.795404 830.67497 348.409347 833.538653 359.050612 840.704119 370.51898 842.160698 379.704673 846.276972 387.427482 845.075711 398.338119 843 411.895232"></polygon>
        <polyline id="Path-8" stroke="#000000" stroke-width="4" points="500 698.5 283.382393 743.5 421.5 875.582422 651.652305 641.5 760.5 799.261435 560.177014 784.025505 375.5 960.5 636.5 915 172.696817 920.991324 493.5 525.5 280 825 283.382393 564.5 799 676.5 805 906.5"></polyline>
    </g>
</svg>